<svg class="animated" id="freepik_stories-drinking-shots" xmlns="http://www.w3.org/2000/svg" viewBox="0 0 500 500" version="1.1" xmlns:xlink="http://www.w3.org/1999/xlink" xmlns:svgjs="http://svgjs.com/svgjs"><style>svg#freepik_stories-drinking-shots:not(.animated) .animable {opacity: 0;}svg#freepik_stories-drinking-shots.animated #freepik--Speech_Bubble_2--inject-91 {animation: 1s 1 forwards cubic-bezier(.36,-0.01,.5,1.38) slideUp;animation-delay: 0s;}svg#freepik_stories-drinking-shots.animated #freepik--Speech_Bubble_1--inject-91 {animation: 1s 1 forwards cubic-bezier(.36,-0.01,.5,1.38) slideUp;animation-delay: 0s;}svg#freepik_stories-drinking-shots.animated #freepik--Character_2--inject-91 {animation: 1s 1 forwards cubic-bezier(.36,-0.01,.5,1.38) slideLeft;animation-delay: 0s;}svg#freepik_stories-drinking-shots.animated #freepik--Character_1--inject-91 {animation: 1s 1 forwards cubic-bezier(.36,-0.01,.5,1.38) slideLeft;animation-delay: 0s;}            @keyframes slideUp {                0% {                    opacity: 0;                    transform: translateY(30px);                }                100% {                    opacity: 1;                    transform: inherit;                }            }                    @keyframes slideLeft {                0% {                    opacity: 0;                    transform: translateX(-30px);                }                100% {                    opacity: 1;                    transform: translateX(0);                }            }        </style><g id="freepik--background-complete--inject-91" class="animable" style="transform-origin: 250px 231.74px;"><g id="elygg4wchyid" class="animable" style="transform-origin: 250px 250px;"><g id="elk21vtu9gckg" class="animable" style="transform-origin: 250px 238.223px;"><g id="elhiyqpdp4cjw" class="animable" style="transform-origin: 249.333px 207.563px;"><path d="M443.92039,345.0618h-180.7461c-3.2324,0-5.86229-2.6298-5.86229-5.8623V75.9261c0-3.2324,2.62989-5.8618,5.86229-5.8618h180.7461c3.2324,0,5.8623,2.6294,5.8623,5.8618V339.1995c0,3.2325-2.6299,5.8623-5.8623,5.8623ZM263.17429,70.3143c-3.0947,0-5.61229,2.5176-5.61229,5.6118V339.1995c0,3.0948,2.51759,5.6123,5.61229,5.6123h180.7461c3.0947,0,5.6123-2.5175,5.6123-5.6123V75.9261c0-3.0942-2.5176-5.6118-5.6123-5.6118h-180.7461Z" style="fill: rgb(224, 224, 224); transform-origin: 353.547px 207.563px;" id="elzgly9n3f4sk" class="animable"></path><path d="M235.49269,345.0618H54.7461c-3.2324,0-5.8618-2.6298-5.8618-5.8623V75.9261c0-3.2324,2.6294-5.8618,5.8618-5.8618H235.49269c3.2324,0,5.86231,2.6294,5.86231,5.8618V339.1995c0,3.2325-2.62991,5.8623-5.86231,5.8623ZM54.7461,70.3143c-3.0942,0-5.6118,2.5176-5.6118,5.6118V339.1995c0,3.0948,2.5176,5.6123,5.6118,5.6123H235.49269c3.0947,0,5.61231-2.5175,5.61231-5.6123V75.9261c0-3.0942-2.51761-5.6118-5.61231-5.6118H54.7461Z" style="fill: rgb(224, 224, 224); transform-origin: 145.12px 207.563px;" id="eluy1aw2889" class="animable"></path></g><rect x="0" y="406.1312" width="500" height=".25" style="fill: rgb(224, 224, 224); transform-origin: 250px 406.256px;" id="ely8lo3eas0q" class="animable"></rect></g><rect x="51.6724" y="420.3957" width="16.06" height=".25" style="fill: rgb(224, 224, 224); transform-origin: 59.7024px 420.521px;" id="els7w4xupetg" class="animable"></rect><rect x="170.3524" y="417.6857" width="53.53" height=".25" style="fill: rgb(224, 224, 224); transform-origin: 197.117px 417.811px;" id="elcw044e3c2wd" class="animable"></rect><rect x="68.7324" y="429.6857" width="36.25" height=".25" style="fill: rgb(224, 224, 224); transform-origin: 86.8574px 429.811px;" id="elkrpxkbrt7h" class="animable"></rect><rect x="378.35239" y="417.5557" width="43.19" height=".25" style="fill: rgb(224, 224, 224); transform-origin: 399.947px 417.681px;" id="elta8l89a67sl" class="animable"></rect><rect x="430.45239" y="417.5557" width="6.33" height=".25" style="fill: rgb(224, 224, 224); transform-origin: 433.617px 417.681px;" id="els0y1b32tifi" class="animable"></rect><rect x="316.21239" y="423.7857" width="53.89" height=".25" style="fill: rgb(224, 224, 224); transform-origin: 343.157px 423.911px;" id="elhekwz5475o" class="animable"></rect></g><g id="elaa5wvdf226n" class="animable" style="transform-origin: 250px 67.1052px;"><g id="eleloi9ojposu" class="animable" style="transform-origin: 131.08px 67.8847px;"><polygon points="182.3152 64.6066 198.22639 77.7672 203.58329 58.1781 182.3152 64.6066" style="fill: rgb(235, 235, 235); transform-origin: 192.949px 67.9726px;" id="elt7cnd6mpn2c" class="animable"></polygon><polygon points="210.69939 56.1473 227.506 67.2771 229.15309 48.9033 210.69939 56.1473" style="fill: rgb(235, 235, 235); transform-origin: 219.926px 58.0902px;" id="elaijki6kbqij" class="animable"></polygon><polygon points="54.4182 75.0487 66.4117 100.6665 80.3719 75.3846 54.4182 75.0487" style="fill: rgb(235, 235, 235); transform-origin: 67.3951px 87.8576px;" id="el1oi6yc59lad" class="animable"></polygon><polygon points="82.3227 75.5445 101.5121 96.8126 112.6578 73.8014 82.3227 75.5445" style="fill: rgb(235, 235, 235); transform-origin: 97.4902px 85.307px;" id="ely8hz49lelcl" class="animable"></polygon><polygon points="116.8955 73.6736 134.5017 91.2798 141.6818 70.6832 116.8955 73.6736" style="fill: rgb(235, 235, 235); transform-origin: 129.289px 80.9815px;" id="el4evpf6fysle" class="animable"></polygon><polygon points="148.9577 70.1875 170.7055 86.8981 176.3185 66.1098 148.9577 70.1875" style="fill: rgb(235, 235, 235); transform-origin: 162.638px 76.504px;" id="el1ip6qic23lz" class="animable"></polygon><path d="M144.2723,71.6907c-65.9473,7.9955-132.4384,3.1982-133.5257,3.1022l.2238-2.9104c1.7431,.1439,175.4225,12.633,238.53939-36.7796l1.9029,2.3347c-24.7222,19.2694-65.8194,29.2638-107.1404,34.2531Z" style="fill: rgb(224, 224, 224); transform-origin: 131.08px 55.7051px;" id="elb1pwfg1ay3h" class="animable"></path></g><g id="el3uhfi0qaf8e" class="animable" style="transform-origin: 368.92px 66.3257px;"><polygon points="317.68479 63.0476 301.77359 76.2082 296.41669 56.6191 317.68479 63.0476" style="fill: rgb(235, 235, 235); transform-origin: 307.051px 66.4136px;" id="elr89jspnfcih" class="animable"></polygon><polygon points="289.30059 54.5883 272.494 65.7181 270.84689 47.3443 289.30059 54.5883" style="fill: rgb(235, 235, 235); transform-origin: 280.074px 56.5312px;" id="ellnnwwp07bhl" class="animable"></polygon><polygon points="445.58179 73.4897 433.58829 99.1075 419.62809 73.8256 445.58179 73.4897" style="fill: rgb(235, 235, 235); transform-origin: 432.605px 86.2986px;" id="elixz5u5cysbg" class="animable"></polygon><polygon points="417.67729 73.9855 398.48789 95.2536 387.34219 72.2424 417.67729 73.9855" style="fill: rgb(235, 235, 235); transform-origin: 402.51px 83.748px;" id="elantj3xo7suv" class="animable"></polygon><polygon points="383.10449 72.1145 365.49829 89.7208 358.31819 69.1242 383.10449 72.1145" style="fill: rgb(235, 235, 235); transform-origin: 370.711px 79.4225px;" id="elfwq0pn1wq2" class="animable"></polygon><polygon points="351.04229 68.6285 329.29449 85.3391 323.68149 64.5508 351.04229 68.6285" style="fill: rgb(235, 235, 235); transform-origin: 337.362px 74.945px;" id="ellz8pwt9n1wq" class="animable"></polygon><path d="M355.72769,70.1316c65.94731,7.9956,132.4384,3.1983,133.5257,3.1023l-.2238-2.9104c-1.7431,.1439-175.4225,12.633-238.53939-36.7796l-1.9029,2.3347c24.7222,19.2694,65.8194,29.2638,107.1404,34.253Z" style="fill: rgb(224, 224, 224); transform-origin: 368.92px 54.1461px;" id="elj6v9xw77tka" class="animable"></path></g></g><rect x="326.96479" y="121.3667" width="51.6431" height="16.7174" style="fill: rgb(245, 245, 245); transform-origin: 352.786px 129.725px;" id="elxckhat5empj" class="animable"></rect><rect x="41.9109" y="227.6291" width="51.643" height="16.7174" style="fill: rgb(245, 245, 245); transform-origin: 67.7324px 235.988px;" id="el5tpc6trlxzk" class="animable"></rect><rect x="255.90579" y="249.9825" width="51.643" height="16.7174" style="fill: rgb(245, 245, 245); transform-origin: 281.727px 258.341px;" id="elxzycbvt10xn" class="animable"></rect><g id="elfyijbfe3eqe" class="animable" style="transform-origin: 421.542px 207.355px;"><rect x="385.32829" y="207.32" width="51.6431" height="16.7173" style="fill: rgb(245, 245, 245); transform-origin: 411.15px 215.679px;" id="elfo27owwwblg" class="animable"></rect><rect x="406.11349" y="190.6729" width="51.643" height="16.7173" style="fill: rgb(235, 235, 235); transform-origin: 431.935px 199.032px;" id="ell3zo0878uh" class="animable"></rect></g><g id="elxsgsy8tyvbo" class="animable" style="transform-origin: 280.926px 373.954px;"><rect x="244.71179" y="373.9187" width="51.643" height="16.7173" style="fill: rgb(245, 245, 245); transform-origin: 270.533px 382.277px;" id="elc3spusvcd9o" class="animable"></rect><rect x="265.49689" y="357.2716" width="51.643" height="16.7173" style="fill: rgb(235, 235, 235); transform-origin: 291.318px 365.63px;" id="el09zzjpvvzfa6" class="animable"></rect></g><g id="eloiflh0oa5x" class="animable" style="transform-origin: 78.0767px 378.718px;"><rect x="41.8626" y="378.6824" width="51.6431" height="16.7173" style="fill: rgb(245, 245, 245); transform-origin: 67.6842px 387.041px;" id="elmihpj4kwef" class="animable"></rect><rect x="62.6477" y="362.0353" width="51.6431" height="16.7173" style="fill: rgb(235, 235, 235); transform-origin: 88.4693px 370.394px;" id="elnb1f6k2u5hk" class="animable"></rect></g><g id="elnrzw64gboq" class="animable" style="transform-origin: 168.485px 138.084px;"><rect x="132.3205" y="121.6052" width="51.643" height="16.7174" style="fill: rgb(235, 235, 235); transform-origin: 158.142px 129.964px;" id="el22ubefc957e" class="animable"></rect><rect x="153.0055" y="137.8456" width="51.6431" height="16.7174" style="fill: rgb(245, 245, 245); transform-origin: 178.827px 146.204px;" id="eldrzaqrpe8j5" class="animable"></rect></g></g><g id="freepik--Shadow--inject-91" class="animable" style="transform-origin: 256.384px 454.476px;"><path d="M450.11939,447.6458c0,2.1899-84.0956,14.6345-189.9805,14.6345s-197.49119-10.5223-197.49119-12.7122,90.9214-1.9224,196.8063-1.9224,190.66539-2.1899,190.66539,.0001Z" style="fill: rgb(245, 245, 245); transform-origin: 256.384px 454.476px;" id="els8ong4sn0xd" class="animable"></path></g><g id="freepik--Glasses--inject-91" class="animable" style="transform-origin: 255.051px 434.433px;"><g id="ely4luk7ah4x" class="animable" style="transform-origin: 228.105px 434.433px;"><path d="M237.60859,421.2203h-19.0068c2.7075,11.0106,1.9494,26.4254,1.9494,26.4254h15.108s-.7581-15.4148,1.9494-26.4254Z" style="fill: rgb(0, 255, 136); transform-origin: 228.105px 434.433px;" id="el2pn2r8ticip" class="animable"></path><g id="elgwl3phf1r7w"><path d="M237.60859,421.2203h-19.0068c2.7075,11.0106,1.9494,26.4254,1.9494,26.4254h15.108s-.7581-15.4148,1.9494-26.4254Z" style="fill: rgb(255, 255, 255); opacity: 0.6; transform-origin: 228.105px 434.433px;" class="animable"></path></g><g id="el2gm0tlts5gx"><path d="M222.58009,441.6605c.099-4.2122,.1093-10.8216-1.5388-19.2548h14.1279c-1.648,8.4332-1.6378,15.0426-1.5388,19.2548-4.1717,.9613-7.8552,.9613-11.0503,0Z" style="fill: rgb(0, 255, 136); opacity: 0.3; transform-origin: 228.105px 432.394px;" class="animable"></path></g><g id="elrp6ojsp26z"><g style="opacity: 0.3; transform-origin: 228.123px 444.231px;" class="animable"><path d="M222.84189,443.4614c1.496,1.1082,3.4044,1.7149,5.3093,1.6879s3.7929-.6875,5.2527-1.8376c-3.5541,.6095-7.0754,.6702-10.562,.1497Z" style="fill: rgb(0, 255, 136); transform-origin: 228.123px 444.231px;" id="elfr67kxizk2t" class="animable"></path></g></g></g><g id="ell9tk1t3qkkq" class="animable" style="transform-origin: 281.997px 434.433px;"><path d="M291.50069,421.2203h-19.0068c2.7075,11.0106,1.9494,26.4254,1.9494,26.4254h15.108s-.7581-15.4148,1.9494-26.4254Z" style="fill: rgb(0, 255, 136); transform-origin: 281.997px 434.433px;" id="el6x6ilov5wzr" class="animable"></path><g id="elkt5m3r7pwz"><path d="M291.50069,421.2203h-19.0068c2.7075,11.0106,1.9494,26.4254,1.9494,26.4254h15.108s-.7581-15.4148,1.9494-26.4254Z" style="fill: rgb(255, 255, 255); opacity: 0.6; transform-origin: 281.997px 434.433px;" class="animable"></path></g><g id="elk91lpdc7y8p"><path d="M276.47219,441.6605c.099-4.2122,.1092-10.8216-1.5388-19.2548h14.1279c-1.648,8.4332-1.6378,15.0426-1.5388,19.2548-4.1717,.9613-7.8552,.9613-11.0503,0Z" style="fill: rgb(0, 255, 136); opacity: 0.3; transform-origin: 281.997px 432.394px;" class="animable"></path></g><g id="el0aut9pqmzcgt"><g style="opacity: 0.3; transform-origin: 282.015px 444.231px;" class="animable"><path d="M276.734,443.4614c1.496,1.1082,3.40439,1.7149,5.30929,1.6879s3.7929-.6875,5.25271-1.8376c-3.55411,.6095-7.07541,.6702-10.562,.1497Z" style="fill: rgb(0, 255, 136); transform-origin: 282.015px 444.231px;" id="eleo36x1kmosn" class="animable"></path></g></g></g><g id="el32dkua9tikp" class="animable" style="transform-origin: 248.15px 434.433px;"><path d="M257.65359,421.2203h-19.0068c2.7075,11.0106,1.9494,26.4254,1.9494,26.4254h15.108s-.7581-15.4148,1.9494-26.4254Z" style="fill: rgb(0, 255, 136); transform-origin: 248.15px 434.433px;" id="ele8ztofus89u" class="animable"></path><g id="elsz923ksnvbo"><path d="M257.65359,421.2203h-19.0068c2.7075,11.0106,1.9494,26.4254,1.9494,26.4254h15.108s-.7581-15.4148,1.9494-26.4254Z" style="fill: rgb(255, 255, 255); opacity: 0.6; transform-origin: 248.15px 434.433px;" class="animable"></path></g><g id="elzpqcux7ar0s"><path d="M242.62509,441.6605c.099-4.2122,.1092-10.8216-1.5388-19.2548h14.1279c-1.648,8.4332-1.6378,15.0426-1.5388,19.2548-4.1717,.9613-7.8552,.9613-11.0503,0Z" style="fill: rgb(0, 255, 136); opacity: 0.3; transform-origin: 248.15px 432.394px;" class="animable"></path></g><g id="el5nnjp5ulovk"><g style="opacity: 0.3; transform-origin: 248.168px 444.231px;" class="animable"><path d="M242.88689,443.4614c1.496,1.1082,3.4044,1.7149,5.3093,1.6879s3.7929-.6875,5.2526-1.8376c-3.5541,.6095-7.0753,.6702-10.5619,.1497Z" style="fill: rgb(0, 255, 136); transform-origin: 248.168px 444.231px;" id="el21vctu6v859" class="animable"></path></g></g></g></g><g id="freepik--Speech_Bubble_2--inject-91" class="animable" style="transform-origin: 291.718px 158.331px;"><g id="elk1p4nolp5wb" class="animable" style="transform-origin: 291.718px 158.331px;"><path d="M261.17269,176.0839c-9.8048-16.8734-4.0749-38.5004,12.7986-48.3051,16.8738-9.8048,38.5009-4.0749,48.30571,12.7989,7.56919,13.0265,5.84749,28.8645-3.08021,39.9306l1.7225,10.472-10.9501-2.4169c-.1685,.1016-.3204,.2202-.4915,.3197-16.873,9.805-38.5001,4.0742-48.305-12.7992Z" style="fill: rgb(0, 255, 136); transform-origin: 291.718px 158.331px;" id="el2kf104kord8" class="animable"></path><g id="elyfz3l61xucf"><g style="opacity: 0.3; transform-origin: 291.718px 158.331px;" class="animable"><path d="M261.17269,176.0839c-9.8048-16.8734-4.0749-38.5004,12.7986-48.3051,16.8738-9.8048,38.5009-4.0749,48.30571,12.7989,7.56919,13.0265,5.84749,28.8645-3.08021,39.9306l1.7225,10.472-10.9501-2.4169c-.1685,.1016-.3204,.2202-.4915,.3197-16.873,9.805-38.5001,4.0742-48.305-12.7992Z" style="fill: rgb(255, 255, 255); transform-origin: 291.718px 158.331px;" id="elxug4nnuel7" class="animable"></path></g></g><path d="M291.71809,174.9633c-1.3276,0-2.4372-.4289-3.3289-1.2874-.8905-.8581-1.3361-1.9031-1.3361-3.1349,0-1.2306,.4374-2.2596,1.3118-3.0857,.87511-.826,1.9928-1.239,3.3532-1.239,1.3608,0,2.4785,.413,3.3532,1.239,.8751,.8261,1.3123,1.8551,1.3123,3.0857,0,1.2318-.4451,2.2768-1.3368,3.1349-.8902,.8585-1.9999,1.2874-3.3287,1.2874Zm3.013-12.1971h-6.0259l-1.5064-22.2081h9.0387l-1.5064,22.2081Z" style="fill: rgb(255, 255, 255); transform-origin: 291.718px 157.761px;" id="eljfv9q8zgfvm" class="animable"></path></g></g><g id="freepik--Speech_Bubble_1--inject-91" class="animable" style="transform-origin: 233.522px 214.432px;"><g id="elizucl9r7ehr" class="animable" style="transform-origin: 233.522px 214.432px;"><g id="elgj9tf62bvo9" class="animable" style="transform-origin: 233.522px 214.432px;"><path d="M253.17289,237.7571c12.8823-11.5193,13.9874-31.3005,2.46811-44.1827-11.51961-12.8823-31.30091-13.9876-44.18331-2.468-9.945,8.8931-12.8379,22.701-8.3549,34.4666l-4.3216,8.3453,9.88281,.9673c.114,.1318,.20929,.2733,.32609,.404,11.51891,12.8823,31.3005,13.9867,44.1828,2.4675Z" style="fill: rgb(0, 255, 136); transform-origin: 231.194px 214.432px;" id="elmo26xaigob" class="animable"></path><path d="M265.84668,225.06982c-.03125,0-.06348-.00586-.09473-.01855-.12793-.05225-.18848-.19775-.13672-.32568,3.79199-9.30713,2.49219-20.62305-3.3125-28.82812-.08008-.11279-.05273-.26904,.05957-.34863,.1123-.08057,.26855-.05273,.34863,.05957,5.90039,8.34131,7.22266,19.84473,3.36719,29.30566-.03906,.09717-.13281,.15576-.23145,.15576Z" style="fill: rgb(0, 255, 136); transform-origin: 265.26px 210.286px;" id="elkguzqsy0ax" class="animable"></path><path d="M261.6416,233.3418c-.05859,0-.11816-.02051-.16602-.06299-.10352-.09131-.1123-.24951-.02148-.35303,1.00195-1.12939,1.77637-2.48633,2.24121-3.92432,.04199-.13086,.18457-.20166,.31543-.16064,.13086,.04248,.20312,.18359,.16113,.31494-.48633,1.50293-1.29688,2.92139-2.34277,4.10205-.0498,.05566-.11816,.08398-.1875,.08398Z" style="fill: rgb(0, 255, 136); transform-origin: 262.788px 231.085px;" id="elsrfips2bkso" class="animable"></path></g><g id="elj1417uyvkum"><g style="opacity: 0.5; transform-origin: 231.194px 214.432px;" class="animable"><path d="M253.17289,237.7571c12.8823-11.5193,13.9874-31.3005,2.46811-44.1827-11.51961-12.8823-31.30091-13.9876-44.18331-2.468-9.945,8.8931-12.8379,22.701-8.3549,34.4666l-4.3216,8.3453,9.88281,.9673c.114,.1318,.20929,.2733,.32609,.404,11.51891,12.8823,31.3005,13.9867,44.1828,2.4675Z" style="fill: rgb(255, 255, 255); transform-origin: 231.194px 214.432px;" id="el6nfvocpqi5m" class="animable"></path></g></g><path d="M230.09529,229.5955c-.7897-.76-1.1838-1.6853-1.1838-2.7761,0-1.0897,.3872-2.0009,1.1621-2.7325,.7745-.7314,1.7643-1.0972,2.96941-1.0972,1.20459,0,2.19439,.3658,2.96929,1.0972,.7743,.7316,1.1616,1.6428,1.1616,2.7325,0,1.0908-.3946,2.0161-1.1831,2.7761-.7897,.7602-1.7722,1.14-2.94779,1.14-1.17681,0-2.15941-.3798-2.94771-1.14Zm-1.0544-29.3268h8.004l-1.334,19.6659h-5.336l-1.334-19.6659Z" style="fill: rgb(255, 255, 255); transform-origin: 233.043px 215.502px;" id="el9aeyeo0ohdg" class="animable"></path></g></g><g id="freepik--Character_2--inject-91" class="animable" style="transform-origin: 168.237px 307.176px;"><g id="el69fqkus0x2v" class="animable" style="transform-origin: 168.237px 307.176px;"><g id="eljvgadi86io" class="animable" style="transform-origin: 214.917px 367.417px;"><path d="M190.4556,325.6665c0,1.4437,6.6496,48.3897,6.6496,48.3897,1.5822,.8041,31.0086-22.1805,31.0086-22.1805l12.4715,12.7892s-36.7587,50.5948-64.19929,43.8899c-11.698-2.8583-16.8407-23.7702-16.8407-40.7324s-5.9201-40.6639-5.9201-40.6639l36.8304-1.492Z" style="fill: rgb(235, 179, 115); transform-origin: 197.105px 367.417px;" id="elhfitu6vhu3h" class="animable"></path><g id="el09jojq2bammv" class="animable" style="transform-origin: 250.994px 346.133px;"><path d="M226.49759,354.4187s-2.1168-7.1914,.9133-12.5991c3.0299-5.4077,4.0107-10.5323,6.541-14.3967,2.5305-3.8645,3.3557,2.3154,3.1295,5.692-.2266,3.3763-.4488,7.2057,2.11461,6.9654,2.56359-.2398,20.66319-12.9987,24.25519-12.9269,3.5924,.0712,1.31,3.0508,1.31,3.0508,0,0,4.4794-2.9803,6.1436-1.5275,.432,.3773,.8251,1.9559-1.0033,3.6342-4.11349,3.775-13.1541,11.2536-13.1541,11.2536,.51-.4397,12.32861-8.8736,14.2634-9.9058,2.52921-1.349,4.4096-.6955,5.1436,.7964,1.0451,2.1233-13.2519,13.0797-13.5317,13.9631,0,0,8.0198-6.5829,10.8522-5.4427,2.8322,1.1404-1.9901,5.5598-6.9825,8.6491-4.5765,2.8317-12.8131,9.585-17.7445,12.0122-6.0771,2.9914-10.8293,3.6344-15.7395-.3939-4.91039-4.029-6.5108-8.8242-6.5108-8.8242Z" style="fill: rgb(235, 179, 115); transform-origin: 250.994px 346.133px;" id="eljc2h94x008c" class="animable"></path><g id="eltv6oi2i380b"><path d="M254.11035,338.55469c-.07031,0-.1416-.03027-.19043-.08789-.08984-.10547-.07617-.26367,.02832-.35254,3.28613-2.78711,6.73633-5.45215,10.25488-7.92285,.11328-.07812,.26855-.05273,.34863,.06152,.0791,.11328,.05176,.26855-.06152,.34863-3.50586,2.46094-6.94336,5.11719-10.21777,7.89355-.04785,.04004-.10449,.05957-.16211,.05957Z" style="opacity: 0.3; transform-origin: 259.229px 334.351px;" class="animable"></path></g><g id="el4k5d1eshus7"><path d="M260.13867,350.59473c-.10254,0-.19824-.06348-.23535-.16504-1.86816-5.17383-5.33203-9.82617-9.75293-13.09863-.11084-.08203-.13428-.23926-.05176-.34961,.08203-.11133,.23926-.13379,.34961-.05273,4.49902,3.33105,8.02344,8.06543,9.92578,13.33105,.04688,.12988-.02051,.27344-.15039,.32031-.02832,.00977-.05664,.01465-.08496,.01465Z" style="opacity: 0.3; transform-origin: 255.219px 343.737px;" class="animable"></path></g><g id="el6pyf8urf7gp"><path d="M235.35498,354.60645c-.0752,0-.1499-.03418-.19922-.09863-.0835-.11035-.06201-.2666,.04785-.35059,1.74951-1.33008,3.03906-3.32031,3.5376-5.46094,.49854-2.13965,.22119-4.49512-.76123-6.46191-.06152-.12305-.01172-.27344,.11182-.33496,.12305-.06055,.27344-.0127,.33545,.1123,1.03369,2.06836,1.32568,4.54688,.80127,6.79785-.5249,2.25293-1.88184,4.34668-3.72217,5.74609-.04541,.03418-.09863,.05078-.15137,.05078Z" style="opacity: 0.3; transform-origin: 237.294px 348.24px;" class="animable"></path></g></g></g><g id="elwdwp0uxe85a" class="animable" style="transform-origin: 130.39px 366.384px;"><path d="M181.5304,366.8813l18.9817-4.286s.8775-34.0227-27.8036-62.5859l8.8219,66.8719Z" style="fill: rgb(0, 255, 136); transform-origin: 186.612px 333.445px;" id="elfymowat5gyb" class="animable"></path><g id="elszfq3aepyqr"><path d="M170.5949,406.0668c-.5235,.2365,7.9934,3.2948,7.9934,3.2948,.1437,.0863,6.1618-18.1193,6.3057-18.033,6.7528-30.509,2.1875-54.8235,2.1875-54.8235-5.1206,10.6448-15.1916,60.6431-16.4866,69.5617Z" style="opacity: 0.2; transform-origin: 179.581px 372.934px;" class="animable"></path></g><path d="M176.5957,447.6457c2.5943-5.4981-8.5265-21.2286-7.4423-37.0008,7.3693-27.4965,18.1259-58.8014,17.9281-74.1398-.1989-16.4572-7.5635-36.9085-23.5394-41.497-4.4469-1.275-9.0923-2.5497-13.5961-3.5978-13.5681-3.2292-24.4282-4.6688-40.0362-6.1419-3.9929-.3964-9.2254,.1062-14.0449,.3988-13.8943,.8435-26.3322,8.5649-24.4336,22.6992,.4245,3.1724,3.2538,7.8292,3.6212,10.8316,1.6426,12.9733,2.8607,24.3883,3.7105,34.3874,.4537,5.58,.8217,10.707,1.0775,15.4662,.0842,1.5009,.1691,3.0024,.2261,4.4186,.4201,9.0692,.4601,16.6272,.2218,23.0092-.0019,.9673-.0503,1.9327-.132,2.8959-.0024,.0433-.0048,.0855-.0069,.1286-1.0401,11.7737-7.7041,23.0868-12.7106,30.2968-3.5676,5.138-6.0049,10.9802-7.1295,17.1334-.0147,.0812-.0296,.1629-.0443,.245l116.3306,.4666Z" style="fill: rgb(0, 255, 136); transform-origin: 123.675px 366.384px;" id="ely2mbuh0kjue" class="animable"></path><g id="elmky58d4htvg"><polygon points="106.795 326.1935 110.1938 372.195 125.4473 387.1443 114.7724 395.4457 100.2545 386.685 92.7452 360.8196 106.795 326.1935" style="opacity: 0.2; transform-origin: 109.096px 360.82px;" class="animable"></polygon></g></g><g id="elsbivsfcscy" class="animable" style="transform-origin: 132.149px 245.763px;"><path d="M69.6395,269.7063c-2.387-22.2403,13.8203-16.7676,11.7012-45.2034-2.333-31.3079,27.4311-39.1466,27.4311-39.1466,0,0,10.2869-13.7517,24.5625-17.6039,18.2834-4.934,64.9676,7.1081,54.2484,46.6794-6.3907,23.592-2.4778,22.6285,1.0644,32.4907,5.0141,13.9601-7.0491,33.1155,6.2523,41.5825,0,0-57.9084-7.1014-112.5234-3.9435,0,0-11.2788-1.2756-12.7365-14.8552Z" style="fill: rgb(38, 50, 56); transform-origin: 132.149px 227.606px;" id="elwe79ze0csr8" class="animable"></path><path d="M151.4452,291.7662c-6.8656-4.626-8.0795-8.8544-7.1028-14.6909,.5123-3.3087,1.7099-6.7245,3.1095-10.0424l-6.2554-3.7557-22.2946-22.5004c2.55,13.796,1.9379,36.5517-9.8056,44.7071,0,0,10.4757,8.5744,21.7109,18.2555,2.3404,2.0167,22.6111,21.0803,22.6111,21.0803l-1.9731-33.0535Z" style="fill: rgb(235, 179, 115); transform-origin: 131.257px 282.798px;" id="elhzkqfyjjonj" class="animable"></path><g id="elzznss8t7g4"><path d="M144.1608,278.357c-6.1318-3.6401-12.8593-9.9531-12.0528-17.1667,.3595-3.0374,1.0144-5.9156,1.7421-7.7602l12.4543,16.489c-1.0221,2.6579-1.3957,4.4149-2.1436,8.4379Z" style="opacity: 0.2; transform-origin: 139.173px 265.894px;" class="animable"></path></g><path d="M114.5832,215.4097c2.0983,22.9073,2.503,32.6218,14.324,44.6331,17.7807,18.0672,45.136,11.9899,49.8453-10.7163,4.2389-20.4365,.095-54.464-22.3937-64.0912-22.1561-9.4849-43.8737,7.2669-41.7756,30.1744Z" style="fill: rgb(235, 179, 115); transform-origin: 147.335px 226.573px;" id="el7h96x3y7jm4" class="animable"></path><path d="M144.2533,222.8671c.1127,2.4239,1.4254,4.4136,2.9322,4.4447,1.506,.0311,2.6357-1.9081,2.523-4.3315-.1123-2.4236-1.4251-4.4138-2.9315-4.4449-1.5062-.0314-2.6359,1.9077-2.5237,4.3317Z" style="fill: rgb(38, 50, 56); transform-origin: 146.981px 222.924px;" id="elct8e40hc95l" class="animable"></path><path d="M166.8439,222.7986c.1142,2.3486,1.4243,4.2781,2.926,4.3096,1.5017,.0309,2.6268-1.8475,2.513-4.1965-.114-2.3482-1.4239-4.2778-2.9257-4.3089-1.502-.0318-2.627,1.8471-2.5133,4.1958Z" style="fill: rgb(38, 50, 56); transform-origin: 169.563px 222.855px;" id="elgaacezj0iy6" class="animable"></path><path d="M139.4736,214.4251c.292,.0324,.5879-.0525,.8144-.2613,3.5288-3.2676,7.5027-2.1203,7.5484-2.1068,.5891,.1714,1.185-.1617,1.3199-.7627,.1333-.6-.2406-1.2306-.8373-1.4114-.2076-.0611-5.1947-1.5063-9.5735,2.5504-.4363,.4044-.4451,1.1202-.02,1.5984,.2059,.2295,.4748,.3632,.7481,.3934Z" style="fill: rgb(38, 50, 56); transform-origin: 143.798px 212.008px;" id="el68071egyls8" class="animable"></path><path d="M174.4418,211.3033c.2306-.0775,.4229-.2494,.5239-.5005,.2086-.5189-.0463-1.1777-.5683-1.4712-5.2356-2.9432-9.117-.7058-9.2804-.6069-.4608,.274-.5718,.9243-.2476,1.4536,.3227,.5287,.9578,.7351,1.4186,.4644,.1504-.0901,3.1895-1.7744,7.3524,.5668,.2695,.1509,.5574,.176,.8014,.0938Z" style="fill: rgb(38, 50, 56); transform-origin: 169.861px 209.584px;" id="elc7fdxi8zpum" class="animable"></path><path d="M160.6988,221.6817s3.5835,8.5749,7.6267,13.92c.7066,.9343,.2693,2.2978-.8299,2.7022-2.8288,1.0412-6.1393,.0991-6.1393,.0991l-.6575-16.7213Z" style="fill: rgb(228, 135, 62); transform-origin: 164.684px 230.238px;" id="elmzoeergztpi" class="animable"></path><path d="M145.9143,218.6353l5.2576-1.2423s-2.875,3.9209-5.2576,1.2423Z" style="fill: rgb(38, 50, 56); transform-origin: 148.543px 218.482px;" id="el6ct0tkv4lkp" class="animable"></path><path d="M168.8161,218.6566l5.2576-1.2419s-2.875,3.9205-5.2576,1.2419Z" style="fill: rgb(38, 50, 56); transform-origin: 171.445px 218.504px;" id="el523qq00hs9" class="animable"></path><path d="M122.5341,223.323s11.8164-17.7872,11.2071-32.1908c0,0,22.6176-5.8969,40.6562,18.1994,2.8734,3.8378,4.5872,10.2401,7.1597,15.7603,0,0,4.3176-43.5855-34.3591-47.1583-38.6148-3.5681-46.2046,50.721-27.3651,68.9889,0,0-4.6159-12.4697,2.7012-23.5995Z" style="fill: rgb(38, 50, 56); transform-origin: 145.83px 212.344px;" id="elo17x1m1o85" class="animable"></path><path d="M107.6524,234.0793c2.7058,4.6979,7.1024,7.6483,11.1337,8.6593,6.0636,1.5205,9.1946-8.2283,7.1251-14.3031-1.8636-5.4689-7.8216-9.0885-13.7228-7.8962-5.8134,1.1749-7.6298,8.1683-4.536,13.54Z" style="fill: rgb(235, 179, 115); transform-origin: 116.354px 231.605px;" id="el0bq7uonhsklf" class="animable"></path><g id="elgrsx66ali7a"><path d="M120.46533,233.35889c-.26123,0-.48096-.20264-.49854-.4668-.13623-2.0498-1.10059-4.00293-2.64453-5.35791-1.54492-1.35547-3.6084-2.06055-5.65625-1.92676-.28125,.0127-.51318-.19189-.53076-.46729s.19189-.51318,.46729-.53076c2.3125-.14746,4.63818,.64551,6.37891,2.17285,1.74219,1.52881,2.8291,3.73145,2.9834,6.04346,.01807,.27539-.19043,.51367-.46582,.53223l-.03369,.00098Z" style="opacity: 0.2; transform-origin: 116.05px 228.975px;" class="animable"></path></g><path d="M159.7439,244.3886c-1.7575,2.893-3.9224,8.4646-3.9224,8.4646-.4862-.0979-.9723-.1958-1.4507-.3216-6.5529-1.5126-9.0238-4.6181-9.775-7.6017-.4053-1.634-.2774-3.2479-.0214-4.5283,.282-1.484,.7884-2.4891,.7884-2.4891,2.9279,3.1061,8.9133,5.0387,12.1564,5.9218,1.3535,.3854,2.2247,.5543,2.2247,.5543Z" style="fill: rgb(38, 50, 56); transform-origin: 152.04px 245.383px;" id="elny1919johm" class="animable"></path><path d="M158.3238,243.8475l-1.2845,2.6095c-6.5274-1.5254-10.8902-3.5717-12.4142-6.2421,.2983-1.5704,.8344-2.6341,.8344-2.6341,3.0985,3.287,9.4322,5.3321,12.8643,6.2667Z" style="fill: rgb(255, 255, 255); transform-origin: 151.474px 242.019px;" id="elcbfmosey1r7" class="animable"></path><path d="M154.992,253.0513c-6.9345-1.6007-9.5492-4.8871-10.3443-8.0445,2.3391,.6469,5.0801,1.7158,7.2986,3.4717,1.7018,1.3347,2.5772,2.9917,3.0457,4.5728Z" style="fill: rgb(220, 87, 83); transform-origin: 149.82px 249.029px;" id="elmai2bf5pi1o" class="animable"></path><path d="M116.2831,238.9563c-1.4305,3.4495-2.4051,7.0878-2.8905,10.7906-.1369,1.0446-.2293,2.1407,.1541,3.122,.3833,.9813,1.384,1.7999,2.4238,1.6303,.8076-.1317,1.4351-.8198,1.7289-1.5835,.2938-.7636,.3138-1.6011,.3302-2.4191,.0739-3.7012,.1247-7.5299-1.3154-10.9402" style="fill: rgb(0, 255, 136); transform-origin: 115.667px 246.739px;" id="el3wuwglwomwp" class="animable"></path><g id="el00u74p1jb1n2k"><path d="M126.81119,186.14351c-2.25764,6.92828-6.95004,12.96457-13.11154,16.86158-3.28529,2.07787-6.91664,3.18193-10.50544,4.59021-3.36303,1.31969-6.27853,3.11912-8.47877,6.03364-2.3016,3.04879-3.99557,6.72095-5.31085,10.29299-1.35005,3.66647-1.97288,7.52134-1.08511,11.37313,1.74014,7.55,7.45495,13.5625,7.53914,21.59092,.09523,9.08104-5.87778,17.17096-14.52293,19.86282-.45935,.14303-.2633,.86727,.19938,.72321,6.82388-2.12477,12.30496-7.55967,14.25888-14.4673,1.04668-3.70029,1.09332-7.68308,.08344-11.39648-.98562-3.62418-2.87522-6.90668-4.49061-10.27048-1.88277-3.92054-3.24396-7.99449-2.56187-12.39418,.65463-4.22255,2.5717-8.33654,4.65733-12.03303,2.17676-3.85799,5.07915-6.58691,9.18167-8.29587,3.50482-1.45998,7.15284-2.45633,10.4552-4.37934,6.79611-3.95746,11.9814-10.42334,14.41527-17.89243,.14989-.45998-.57407-.65705-.72321-.19938h0Z" style="fill: rgb(255, 255, 255); opacity: 0.1; transform-origin: 104.314px 231.687px;" class="animable"></path></g><g id="elewthrtsgxo4"><path d="M127.5459,186.58949c2.44181-6.98265,9.26327-11.18289,16.22008-12.63675,4.14696-.86665,8.42565-.88833,12.63758-.62307,3.73069,.23495,7.48854,.6171,11.12029,1.5336,4.03135,1.01734,7.8543,2.7683,10.76738,5.7995,.33509,.34868,.865-.18209,.53033-.53033-5.37033-5.58808-13.43857-6.8473-20.81816-7.43735-8.26332-.66071-17.20365-.31853-24.19751,4.6744-3.17442,2.26622-5.6889,5.31941-6.9832,9.02063-.15965,.45652,.56465,.65279,.72321,.19938h0Z" style="fill: rgb(255, 255, 255); opacity: 0.1; transform-origin: 152.864px 179.645px;" class="animable"></path></g><g id="elrmwf0dvrn6g"><path d="M131.23127,190.4374c7.67279-5.71851,17.80387-7.70522,27.10102-5.48916,9.04253,2.15537,16.55314,8.44939,20.7437,16.68986,2.34651,4.61427,3.57911,9.7346,3.51801,14.9129-.0057,.48277,.7443,.48308,.75,0,.11052-9.36656-3.99773-18.55145-10.87423-24.88501-7.09395-6.53384-16.85124-9.32697-26.36432-8.03789-5.51151,.74684-10.78904,2.83494-15.25272,6.1617-.38258,.28514-.00906,.93648,.37854,.6476h0Z" style="fill: rgb(255, 255, 255); opacity: 0.1; transform-origin: 157.019px 200.117px;" class="animable"></path></g></g><g id="elozo3p35j4a" class="animable" style="transform-origin: 133.324px 346.898px;"><path d="M105.3081,321.8482c0,1.4436-.8852,44.4585-.8852,44.4585l49.2023-20.6927,10.7046,19.1405s-62.9275,48.9048-85.513,42.0726c-11.5262-3.4867-8.7014-25.1102-8.7014-42.0726s-.7165-42.9063-.7165-42.9063h35.9092Z" style="fill: rgb(235, 179, 115); transform-origin: 116.864px 364.665px;" id="elppzew11f94" class="animable"></path><g id="elwoc6h24qfk" class="animable" style="transform-origin: 193.211px 334.185px;"><path d="M203.03349,320.5281h-19.6458c2.7985,11.3807,2.0149,27.3138,2.0149,27.3138h15.616s-.78359-15.9331,2.0149-27.3138Z" style="fill: rgb(0, 255, 136); transform-origin: 193.211px 334.185px;" id="elf8gsjr7jam" class="animable"></path><g id="elfwxyvnqfhqf"><path d="M203.03349,320.5281h-19.6458c2.7985,11.3807,2.0149,27.3138,2.0149,27.3138h15.616s-.78359-15.9331,2.0149-27.3138Z" style="fill: rgb(255, 255, 255); opacity: 0.7; transform-origin: 193.211px 334.185px;" class="animable"></path></g><g id="el09a1l36mpswt"><path d="M187.4997,341.6555c.1024-4.3538,.1129-11.1854-1.5905-19.9022h14.6029c-1.7035,8.7168-1.6929,15.5484-1.5906,19.9022-4.3119,.9936-8.1192,.9936-11.4218,0Z" style="fill: rgb(0, 255, 136); opacity: 0.2; transform-origin: 193.211px 332.077px;" class="animable"></path></g><g id="elhiy5hgvf2d"><g style="opacity: 0.3; transform-origin: 193.229px 344.312px;" class="animable"><path d="M187.7703,343.5169c1.5464,1.1455,3.5189,1.7726,5.4878,1.7447,1.969-.0279,3.9204-.7106,5.4293-1.8994-3.6736,.6299-7.3133,.6927-10.9171,.1547Z" style="fill: rgb(0, 255, 136); transform-origin: 193.229px 344.312px;" id="elz78g23oqk8n" class="animable"></path></g></g><g id="elvzez4x8p42f"><path d="M199.53219,327.9143c-.7126,5.8093-.6875,10.4732-.6107,13.7412-4.3119,.9936-8.1192,.9936-11.4218,0,.0757-3.219,.1012-7.7924-.5791-13.4808,0,0,3.9883-.0459,5.0302,.1502,3.0943,.5825,7.5814-.4106,7.5814-.4106Z" style="fill: rgb(0, 255, 136); opacity: 0.4; transform-origin: 193.226px 335.158px;" class="animable"></path></g></g><path d="M153.4183,346.2464c.584-.9733,13.2375-12.2641,18.6882-13.0428,5.4508-.7787,20.4403,.3893,25.5017,1.3627,5.0613,.9733,7.2027,5.4507,5.84,7.2027,0,0,1.168,5.8401-5.84,6.8135,0,0,1.752,3.3093-2.1414,4.8667-3.8934,1.5573-5.0614,1.3627-5.0614,1.3627,0,0,2.92,2.92-1.752,5.256-4.6721,2.336-14.9895,2.1414-14.9895,2.1414l-14.0162,4.672-6.2294-20.6349Z" style="fill: rgb(235, 179, 115); transform-origin: 178.634px 349.915px;" id="elinyec839cq" class="animable"></path><path d="M90.7096,286.3136s-22.0167,3.7612-24.9641,26.1619c-2.9475,22.4006-2.9475,40.0854-2.9475,39.8889s42.8364,.0016,42.8364,.0016c0,0,2.1614-45.3925,1.572-45.3925-.5895,0-16.4968-20.6599-16.4968-20.6599Z" style="fill: rgb(0, 255, 136); transform-origin: 85.0531px 319.34px;" id="ell2w0a1iq23" class="animable"></path><g id="eln5e850n4vs"><path d="M106.7746,315.7695c2.5206-10.63504-3.80015-21.96883-14.35058-25.06115-1.44809-.48136-2.95941-.76655-4.49412-.93076,1.54523-.06238,3.09953,.12753,4.6234,.45773,11.18442,2.42741,18.13451,14.7445,14.2213,25.53418h0Z" style="opacity: 0.2; transform-origin: 97.902px 302.768px;" class="animable"></path></g></g></g></g><g id="freepik--Character_1--inject-91" class="animable" style="transform-origin: 336.91px 306.615px;"><g id="elnbc0le3dkfm" class="animable" style="transform-origin: 336.91px 306.615px;"><g id="elrck5pmf2jm" class="animable" style="transform-origin: 385.823px 244.348px;"><g id="el5jwz0wktsbt" class="animable" style="transform-origin: 382.423px 177.49px;"><path d="M371.11719,169.1981c2.4399-2.0411,5.602-3.0556,8.75981-3.4406,3.71419-.4532,7.61129-.0644,10.93029,1.6633,3.319,1.7278,5.9793,4.9121,6.5472,8.6106,.6063,3.9468-1.286,8.0758-4.44,10.5248-3.1537,2.4488-7.4033,3.2817-11.3418,2.6229l-4.9732-1.4668c-2.0874-1.1258-4.1596-2.3394-5.8644-3.9884-1.70509-1.6487-3.031-3.7873-3.3049-6.1431-.3673-3.16,1.24681-6.3416,3.687-8.3827Z" style="fill: rgb(38, 50, 56); transform-origin: 382.423px 177.49px;" id="elwml1mmn6d7k" class="animable"></path><g id="el7h69use3wzx"><path d="M382.87629,187.63039c1.37259-4.27013,.88079-8.9973-1.20179-12.95751-1.00242-1.9062-2.4-3.71202-4.12767-5.01475-1.69396-1.27731-4.05689-2.16543-6.00201-.91163-.40435,.26064-.02875,.91014,.37854,.6476,2.0252-1.30542,4.47756,.13843,6.00824,1.57074,1.45414,1.36068,2.61464,3.00696,3.4538,4.81065,1.69031,3.63319,1.99466,7.83841,.76769,11.65552-.14805,.46058,.57585,.6578,.72321,.19938h0Z" style="fill: rgb(255, 255, 255); opacity: 0.1; transform-origin: 377.51px 178.016px;" class="animable"></path></g></g><path d="M335.97889,252.0556l35.2106-66.3737c16.6496-.0575,32.7519,11.2064,38.4064,26.8664,5.4876,15.1981,4.9923,30.439,13.4574,44.2021,7.1264,11.5866,16.7284,20.8063,27.4321,29.2002,2.9104,2.2826,4.8448,2.9154,10.2013,6.4178,3.0957,2.0242,6.5472,4.0574,5.0289,7.4301-2.1388,4.7519-18.2955,13.5475-20.2113,13.0684-5.05529-1.2638-8.5957-6.963-12.2184-10.7082,.1153,5.0811,1.2802,10.1365,3.4004,14.7558-23.6169,7.566-49.4019,8.2232-73.3739,1.8711l.0055-.0898c-8.84389,1.755-18.007,2.5464-26.9727,3.2629,.3191-6.372,.6376-12.7439,.9562-19.1156-.4743,4.4185-5.0346,7.5748-9.4769,7.7033-4.4421,.1285-8.6311-2.1082-12.1242-4.8555-3.4928-2.7472-6.529-6.0555-10.1398-8.6459,17.9649-6.9531,30.6586-25.727,30.4184-44.9894Z" style="fill: rgb(38, 50, 56); transform-origin: 385.823px 254.397px;" id="eliuoiinvam6a" class="animable"></path></g><g id="elox9by8e14z" class="animable" style="transform-origin: 276.081px 350.054px;"><path d="M244.781,338.9222s-5.98271-18.76-9.502-22.2665c-3.51921-3.5065-13.54911-7.5391-13.54911-7.5391,0,0-4.75089,2.2793-8.2702,5.4352-3.5192,3.1559-2.9914,8.2403,1.0558,9.4676,4.0471,1.2273,2.9913,2.104,2.9913,2.104,0,0,6.9855,18.7599,10.4433,20.8639,3.4578,2.1039,8.3847,4.0325,8.3847,4.0325l8.44621-12.0976Z" style="fill: rgb(185, 121, 100); transform-origin: 227.95px 330.068px;" id="el46xv9n9fi2q" class="animable"></path><g id="elcts4zqvid5g" class="animable" style="transform-origin: 217.557px 320.402px;"><path d="M227.38,306.7942h-19.64591c2.7986,11.3397,2.015,27.2153,2.015,27.2153h15.616s-.7836-15.8756,2.01491-27.2153Z" style="fill: rgb(0, 255, 136); transform-origin: 217.557px 320.402px;" id="elpk0xtgmx027" class="animable"></path><g id="elyxa7tpl2pli"><path d="M227.38,306.7942h-19.64591c2.7986,11.3397,2.015,27.2153,2.015,27.2153h15.616s-.7836-15.8756,2.01491-27.2153Z" style="fill: rgb(255, 255, 255); opacity: 0.7; transform-origin: 217.557px 320.402px;" class="animable"></path></g><g id="el1krwg0r28yh"><path d="M211.84619,327.8453c.1024-4.338,.1129-11.145-1.5905-19.8302h14.6029c-1.7035,8.6852-1.6929,15.4922-1.59059,19.8302-4.31191,.99-8.11921,.9901-11.42181,0Z" style="fill: rgb(0, 255, 136); opacity: 0.2; transform-origin: 217.557px 318.301px;" class="animable"></path></g><g id="eldmxuxqdsop"><g style="opacity: 0.3; transform-origin: 217.575px 330.493px;" class="animable"><path d="M212.11679,329.7001c1.5464,1.1413,3.5189,1.7662,5.4878,1.7383,1.969-.0278,3.92041-.708,5.4293-1.8925-3.6736,.6277-7.3133,.6903-10.9171,.1542Z" style="fill: rgb(0, 255, 136); transform-origin: 217.575px 330.493px;" id="eleogfv2guzld" class="animable"></path></g></g><g id="eld2ok9x7jjqu"><path d="M223.87869,314.1538c-.7126,5.7883-.6875,10.4354-.61069,13.6915-4.31191,.99-8.11921,.9901-11.42181,0,.0757-3.2073,.1012-7.7642-.5791-13.4321,0,0,3.9883-.0457,5.0301,.1497,3.0944,.5804,7.5815-.4091,7.5815-.4091Z" style="fill: rgb(0, 255, 136); opacity: 0.4; transform-origin: 217.573px 321.371px;" class="animable"></path></g></g><g id="eljyybnrxelt" class="animable" style="transform-origin: 226.017px 327.242px;"><path d="M235.455,341.3402s-8.97411,2.6307-9.85391-5.825c-.8798-8.4558-4.39909-12.026-6.3346-15.0325-1.9356-3.0064-3.8712-6.2008,0-7.3283,3.8711-1.1274,9.8324,10.1474,16.18851,14.2864" style="fill: rgb(185, 121, 100); transform-origin: 226.243px 327.401px;" id="elnxw4josoeb" class="animable"></path><path d="M235.455,341.34021c-4.14952,1.36492-9.24018,.06505-10.01064-4.79985-.54506-3.40094-1.15956-6.86934-2.79422-9.93039-1.10243-2.24691-2.71202-4.17455-4.12123-6.35372-.94427-1.66303-2.43307-3.58232-1.79778-5.68534,.46893-1.13526,1.50303-1.60343,2.57358-1.88098,1.08212-.24175,2.18224,.33558,2.99331,.92029,4.99077,4.04324,7.9423,10.0324,13.15706,13.83049-5.46814-3.37551-8.70058-9.24131-13.65543-13.12412-.94724-.70696-2.04429-1.07023-3.10171-.46091-2.58189,1.22776-.31255,4.17456,.67427,5.8654,1.32038,2.10359,2.97038,4.13356,4.08972,6.48106,1.65826,3.17666,2.23178,6.70155,2.63208,10.20636,.5382,4.60146,5.41178,5.90181,9.36099,4.9317h0Z" style="fill: rgb(162, 78, 63); transform-origin: 226.017px 327.242px;" id="elkah1w7mus7b" class="animable"></path></g><path d="M244.781,338.9222l54.85489,28.713s11.297-54.2465,23.5514-63.2007c12.2544-8.9541,21.241-8.6053,21.241-8.6053,0,0-16.5464,93.0973-21.8566,100.8304s-14.98969,9.1009-23.56769,6.2519c-8.57811-2.8491-62.66921-51.8917-62.66921-51.8917l8.44621-12.0976Z" style="fill: rgb(185, 121, 100); transform-origin: 290.382px 350.054px;" id="elhhv3jm4kd7j" class="animable"></path></g><g id="el92mt6n5hays" class="animable" style="transform-origin: 372.447px 371.32px;"><g id="el8clhlhn5fta"><path d="M320.22509,354.3562l5.073-20.1712s-17.7407,15.2595-5.8272,37.917l2.554,5.4504s-2.97-7.466-1.7998-23.1962Z" style="opacity: 0.2; transform-origin: 320.327px 355.869px;" class="animable"></path></g><path d="M343.42849,295.4362s-28.3686,47.2545-24.6153,72.3338c1.8771,12.5432,14.2159,38.5241,14.2159,38.5241l-3.1015,8.7243-10.1777,32.6273,109.7892,.0001-13.7927-48.5999s4.7399-26.6302,2.1765-49.188-2.1405-52.4185-3.6785-54.03c-1.5381-1.6114-70.8159-.3917-70.8159-.3917Z" style="fill: rgb(38, 50, 56); transform-origin: 374.005px 371.32px;" id="el08e1rcpseklm" class="animable"></path><g id="elltv3g1wh79g"><path d="M319.75,447.6457h109.78909l-13.7927-48.5998s4.7399-26.6302,2.1765-49.188-2.1405-52.4185-3.6785-54.03c-1.5381-1.6115-70.8159-.3918-70.8159-.3918,0,0-28.3686,47.2546-24.6153,72.3339,1.8771,12.5432,14.2159,38.5241,14.2159,38.5241l-3.1015,8.7243-10.17759,32.6273Z" style="fill: rgb(255, 255, 255); opacity: 0.6; transform-origin: 374.005px 371.32px;" class="animable"></path></g><g id="el0dw7fg1vgl5w"><g style="opacity: 0.2; transform-origin: 379.612px 382.968px;" class="animable"><path d="M376.125,387.6711c-6.77481-2.8105-12.65071-8.3487-14.66871-15.4003,1.7472,11.4714,5.7471,15.3957,12.3075,18.8894,6.5604,3.4939,18.26821,3.5433,24.0034-1.1845-7.2854,.8476-14.8675,.5059-21.64219-2.3046Z" id="elkbyhqbg7kxi" class="animable" style="transform-origin: 379.612px 382.968px;"></path></g></g><path d="M344.42829,358.4881c0,.4671-.3786,.8457-.8456,.8457-.4671,0-.84569-.3786-.84569-.8457,0-.467,.37859-.8456,.84569-.8456,.467,0,.8456,.3786,.8456,.8456Z" style="fill: rgb(255, 255, 255); transform-origin: 343.583px 358.488px;" id="el4mu67mgggqn" class="animable"></path><circle cx="347.54169" cy="333.2491" r=".8456" style="fill: rgb(255, 255, 255); transform-origin: 347.542px 333.249px;" id="eleutvcgcpbp" class="animable"></circle><path d="M348.38729,320.8775c0,.4671-.3786,.8457-.8456,.8457s-.8456-.3786-.8456-.8457c0-.467,.3786-.8456,.8456-.8456s.8456,.3786,.8456,.8456Z" style="fill: rgb(255, 255, 255); transform-origin: 347.542px 320.878px;" id="elc27tbvd6hae" class="animable"></path><circle cx="339.16279" cy="337.975" r=".8456" style="fill: rgb(255, 255, 255); transform-origin: 339.163px 337.975px;" id="elei4i9yel4z" class="animable"></circle><path d="M335.40289,352.6294c0,.467-.3786,.8456-.8456,.8456s-.8456-.3786-.8456-.8456c0-.4671,.3786-.8457,.8456-.8457s.8456,.3786,.8456,.8457Z" style="fill: rgb(255, 255, 255); transform-origin: 334.557px 352.629px;" id="elqwvxrdiyvrj" class="animable"></path><path d="M383.08939,334.3506c0,.467-.3786,.8456-.8457,.8456-.467,0-.8456-.3786-.8456-.8456,0-.4671,.3786-.8457,.8456-.8457,.4671,0,.8457,.3786,.8457,.8457Z" style="fill: rgb(255, 255, 255); transform-origin: 382.244px 334.351px;" id="elraiakwiqw6n" class="animable"></path><path d="M392.506,325.245c0,.467-.37861,.8456-.84571,.8456-.467,0-.8456-.3786-.8456-.8456s.3786-.8456,.8456-.8456c.4671,0,.84571,.3786,.84571,.8456Z" style="fill: rgb(255, 255, 255); transform-origin: 391.66px 325.245px;" id="elvk6yq8s77ib" class="animable"></path><circle cx="346.69609" cy="346.1333" r=".8456" style="fill: rgb(255, 255, 255); transform-origin: 346.696px 346.133px;" id="el3mcx723h5io" class="animable"></circle><path d="M367.552,354.3206c0,.467-.37861,.8456-.84571,.8456-.467,0-.8456-.3786-.8456-.8456s.3786-.8456,.8456-.8456c.4671,0,.84571,.3786,.84571,.8456Z" style="fill: rgb(255, 255, 255); transform-origin: 366.706px 354.321px;" id="elkldgkkhgzjc" class="animable"></path><circle cx="381.39809" cy="351.1907" r=".8456" style="fill: rgb(255, 255, 255); transform-origin: 381.398px 351.191px;" id="elcm5jm43g1mp" class="animable"></circle><path d="M357.66449,365.2274c0,.4671-.3786,.8457-.8456,.8457s-.8456-.3786-.8456-.8457c0-.467,.3786-.8456,.8456-.8456s.8456,.3786,.8456,.8456Z" style="fill: rgb(255, 255, 255); transform-origin: 356.819px 365.227px;" id="elgf67vsnhf7k" class="animable"></path><path d="M377.81419,343.5964c0,.4671-.3786,.8457-.8456,.8457-.4671,0-.8457-.3786-.8457-.8457,0-.467,.3786-.8456,.8457-.8456,.467,0,.8456,.3786,.8456,.8456Z" style="fill: rgb(255, 255, 255); transform-origin: 376.969px 343.596px;" id="elmfzr7fhs6a" class="animable"></path><circle cx="387.89369" cy="338.8206" r=".8456" style="fill: rgb(255, 255, 255); transform-origin: 387.894px 338.821px;" id="elae9r0c7n6i4" class="animable"></circle></g><g id="elu3y0flefbg9" class="animable" style="transform-origin: 387.869px 270.217px;"><path d="M386.99389,246.1835l-22.4292,22.6366-6.2936,3.7782c1.408,3.3378,2.613,6.7743,3.1286,10.1029,.9825,5.872-1.1329,7.9094-6.4023,12.4639-2.2381,1.9344,1.8391,56.4978,3.39161,62.4774l37.09639-62.3656c-11.8145-8.2048-11.0572-35.214-8.4915-49.0934Z" style="fill: rgb(185, 121, 100); transform-origin: 374.913px 301.913px;" id="el3ovzcn8k66d" class="animable"></path><g id="elq61r40qp4ie"><path d="M361.58189,283.991c6.169-3.6624,12.9373-10.0138,12.1256-17.2705-.36149-3.0561-1.0199-5.9514-1.7521-7.8075l-12.5297,16.589c1.02831,2.6739,1.404,4.4414,2.1562,8.489Z" style="opacity: 0.2; transform-origin: 366.6px 271.452px;" class="animable"></path></g><path d="M391.33839,220.6631c-2.1108,23.0459-2.518,32.8189-14.4105,44.9027-17.8878,18.1766-45.4086,12.0623-50.1461-10.7808-4.2646-20.5601-.0957-54.7931,22.5287-64.4783,22.29-9.5421,44.1387,7.3107,42.0279,30.3564Z" style="fill: rgb(185, 121, 100); transform-origin: 358.389px 231.894px;" id="el863aloqcjt9" class="animable"></path><path d="M361.48909,228.1658c-.1132,2.4385-1.4339,4.4402-2.9496,4.4715-1.5152,.0315-2.6517-1.9196-2.5383-4.3576,.113-2.4385,1.4336-4.4407,2.949-4.4717,1.5153-.0316,2.65181,1.919,2.5389,4.3578Z" style="fill: rgb(38, 50, 56); transform-origin: 358.745px 228.223px;" id="elfdca7x316ff" class="animable"></path><path d="M338.762,228.0968c-.11471,2.3627-1.43261,4.304-2.94341,4.3353-1.5112,.0313-2.6429-1.8582-2.5285-4.2214,.11491-2.3626,1.43291-4.3039,2.9436-4.3349,1.5109-.0323,2.6429,1.8582,2.52831,4.221Z" style="fill: rgb(38, 50, 56); transform-origin: 336.026px 228.154px;" id="elay8oakxu6rc" class="animable"></path><path d="M366.29769,219.6725c-.29369,.0329-.5913-.0523-.8193-.2625-3.5502-3.2874-7.5479-2.1333-7.5939-2.1196-.59249,.1724-1.1922-.1629-1.3278-.7673-.134-.6037,.2419-1.2383,.842-1.4198,.209-.0618,5.2261-1.5159,9.6317,2.5656,.4387,.4067,.4478,1.1269,.0198,1.6081-.2068,.2307-.4774,.3652-.7525,.3955Z" style="fill: rgb(38, 50, 56); transform-origin: 361.948px 217.241px;" id="elzyynghl1z4k" class="animable"></path><path d="M331.11859,216.5319c-.2323-.0779-.4255-.2508-.5273-.5032-.2099-.5225,.0466-1.1849,.57171-1.4801,5.26719-2.9613,9.172-.7102,9.33659-.6109,.4635,.2758,.5753,.9302,.2488,1.4627-.3245,.5318-.96339,.7394-1.4267,.4671-.1518-.0907-3.2089-1.7853-7.3971,.5703-.271,.1519-.5607,.177-.806,.0941Z" style="fill: rgb(38, 50, 56); transform-origin: 335.727px 214.802px;" id="el23knm6avs2rh" class="animable"></path><path d="M344.94429,226.9734s-3.6051,8.6263-7.6725,14.0038c-.7112,.94-.271,2.3117,.8346,2.7186,2.8462,1.0475,6.1764,.0996,6.1764,.0996l.6615-16.822Z" style="fill: rgb(162, 78, 63); transform-origin: 340.935px 235.581px;" id="elg5p06kfaoz" class="animable"></path><path d="M359.81809,223.9083l-5.2892-1.2495s2.8923,3.9442,5.2892,1.2495Z" style="fill: rgb(38, 50, 56); transform-origin: 357.173px 223.754px;" id="elrv5hhcddib" class="animable"></path><path d="M336.77819,223.93l-5.2894-1.2497s2.892,3.9442,5.2894,1.2497Z" style="fill: rgb(38, 50, 56); transform-origin: 334.133px 223.776px;" id="el810dkd1gngg" class="animable"></path><path d="M383.33969,228.6243s-19.3245-2.1988-11.2749-32.3853c0,0-22.7543-5.9323-40.90179,18.3096-2.89051,3.8608-4.61471,10.3018-7.20271,15.8555,0,0-4.3437-43.8488,34.5661-47.4434,38.8484-3.5893,46.4839,51.0273,27.5307,69.4058,0,0,4.64391-12.5454-2.7174-23.7422Z" style="fill: rgb(38, 50, 56); transform-origin: 359.903px 217.579px;" id="ela5gmqywfj4w" class="animable"></path><g id="el438k3tisk8f" class="animable" style="transform-origin: 352.648px 250.64px;"><path d="M344.94429,249.7126c1.7575,2.893,3.9224,8.4646,3.9224,8.4646,.4862-.098,.97231-.1958,1.4507-.3216,6.5529-1.5127,9.0238-4.6182,9.775-7.6018,.4053-1.634,.2774-3.2478,.0214-4.5282-.282-1.484-.7884-2.4891-.7884-2.4891-2.9279,3.106-8.9133,5.0386-12.15639,5.9218-1.35351,.3854-2.22471,.5543-2.22471,.5543Z" style="fill: rgb(38, 50, 56); transform-origin: 352.648px 250.707px;" id="elvjuk8sspew" class="animable"></path><path d="M346.36439,249.1715l1.2845,2.6094c6.5274-1.5254,10.8902-3.5716,12.4142-6.2421-.2983-1.5704-.8344-2.634-.8344-2.634-3.0985,3.2869-9.4322,5.3321-12.8643,6.2667Z" style="fill: rgb(255, 255, 255); transform-origin: 353.214px 247.343px;" id="elgmv0vqxhbhf" class="animable"></path><path d="M349.69619,258.3752c6.9345-1.6006,9.5492-4.8871,10.3443-8.0445-2.3391,.647-5.0801,1.7159-7.2986,3.4717-1.7018,1.3347-2.5773,2.9918-3.0457,4.5728Z" style="fill: rgb(220, 87, 83); transform-origin: 354.868px 254.353px;" id="elnkc12mdcov" class="animable"></path></g><g id="el849ylzhdlbf" class="animable" style="transform-origin: 389.557px 238.151px;"><path d="M398.31089,239.4457c-2.7217,4.7263-7.14489,7.6945-11.2006,8.7116-6.1,1.5296-9.25029-8.2781-7.1684-14.3898,1.8749-5.5014,7.869-9.1433,13.8056-7.9435,5.849,1.1816,7.6761,8.2177,4.5634,13.6217Z" style="fill: rgb(185, 121, 100); transform-origin: 389.557px 236.956px;" id="elab6scfcde2s" class="animable"></path><g id="el9kpaaw9vucg"><path d="M385.41992,238.59277l-.02539-.00098c-.20605-.01367-.3623-.19238-.34863-.39893,.15234-2.29248,1.23047-4.47656,2.95801-5.9917,1.72852-1.51514,4.04883-2.29932,6.3252-2.15479,.20703,.01318,.36426,.19141,.35059,.39795s-.19922,.37207-.39746,.3501c-2.09668-.13086-4.20312,.58447-5.78418,1.97021-1.57812,1.38525-2.56445,3.38184-2.7041,5.47803-.0127,.19824-.17773,.3501-.37402,.3501Z" style="opacity: 0.2; transform-origin: 389.863px 234.311px;" class="animable"></path></g><path d="M392.966,247.861c0,1.5717-1.27411,2.8458-2.84581,2.8458-1.5716,0-2.8457-1.2741-2.8457-2.8458,0-1.5716,1.2741-2.8457,2.8457-2.8457,1.5717,0,2.84581,1.2741,2.84581,2.8457Z" style="fill: rgb(0, 255, 136); transform-origin: 390.12px 247.861px;" id="elizbz5m4g49" class="animable"></path></g><g id="elshrh6zaa7u9"><path d="M372.81989,197.27579c1.99578,6.99707,6.23608,13.25654,12.0156,17.68419,5.89121,4.5132,14.9769,6.12673,18.13232,13.53534,3.47698,8.16362-.82888,16.78122-4.50767,24.01148-3.76352,7.39679-7.50907,15.7308-4.27404,24.02462,3.28715,8.42742,11.36498,13.32615,19.3607,16.59518,.44648,.18254,.64087-.54271,.19938-.72321-7.5537-3.08832-15.16465-7.64118-18.57143-15.43022-3.85431-8.81224,.66704-17.63714,4.64489-25.48724,3.35083-6.61271,6.64707-14.11183,4.42959-21.6336-.96162-3.26187-3.00845-5.88814-5.76332-7.84553-2.98673-2.12214-6.4377-3.44543-9.60538-5.25602-7.44487-4.25535-12.98934-11.4421-15.33744-19.67437-.13216-.46335-.85606-.26638-.72321,.19938h0Z" style="fill: rgb(255, 255, 255); opacity: 0.1; transform-origin: 393.4px 244.984px;" class="animable"></path></g><g id="el5da5epquro8"><path d="M373.31649,196.8074c-.19167-4.63308-3.25117-8.60767-7.22419-10.7982-4.78798-2.63986-10.52965-2.59944-15.7899-1.8193-.47574,.07056-.27353,.79335,.19938,.72321,4.95316-.73459,10.36615-.78766,14.91865,1.58651,3.87492,2.02081,6.96065,5.82579,7.14606,10.30778,.01989,.48091,.77,.48342,.75,0h0Z" style="fill: rgb(255, 255, 255); opacity: 0.1; transform-origin: 361.674px 190.447px;" class="animable"></path></g><g id="el2cw2a8h1hk8"><path d="M373.88359,198.13997c5.29838,8.4192,15.73751,10.21091,23.71703,15.04383,8.96769,5.43141,13.47203,15.61436,12.86112,25.92073-.32771,5.52863-2.25608,10.41268-4.28183,15.4886-1.78616,4.47557-2.73565,8.9554-1.76513,13.74697,1.89048,9.33356,9.17241,16.26086,17.44723,20.31718,4.88184,2.39308,10.07357,3.82842,15.30614,5.21816,5.10511,1.35588,10.37017,2.96186,14.11768,6.89443,.33364,.35012,.86343-.18078,.53033-.53033-3.03893-3.18899-7.0931-4.93063-11.24292-6.18745-4.52723-1.37112-9.14959-2.34346-13.58895-4.00801-9.36057-3.50979-18.27288-9.82314-21.31301-19.79765-1.52069-4.98929-.94112-9.82501,.90887-14.63235,1.86849-4.8554,3.88471-9.45594,4.47454-14.68648,1.06155-9.4136-1.98807-19.35548-9.28035-25.65765-8.20504-7.09099-21.15213-7.82979-27.24316-17.50852-.25645-.40751-.90569-.03156-.6476,.37854h0Z" style="fill: rgb(255, 255, 255); opacity: 0.1; transform-origin: 412.873px 249.235px;" class="animable"></path></g></g><path d="M451.38039,393.1005c-.2028-5.5486-3.9812-28.0269-6.3431-41.6468-.2061-2.1079-2.3028-21.4832-11.35129-39.529-9.25861-18.4647-20.955-15.9863-20.955-15.9863-.62421-.0082-8.87381,7.0549-6.92651,17.3658,3.4948,18.5051,9.0238,44.372,9.0238,44.372l6.7774,42.4588-2.5004,47.5107h20.8605s11.7107-46.4426,11.4146-54.5452Z" style="fill: rgb(185, 121, 100); transform-origin: 428.447px 371.737px;" id="el0xdt8hgzm7cj" class="animable"></path></g></g><g id="freepik--Table--inject-91" class="animable" style="transform-origin: 250.987px 447.646px;"><path d="M461.81348,448.14551H40.16113c-.27637,0-.5-.22363-.5-.5s.22363-.5,.5-.5H461.81348c.27637,0,.5,.22363,.5,.5s-.22363,.5-.5,.5Z" style="fill: rgb(38, 50, 56); transform-origin: 250.987px 447.646px;" id="eldgfrdgzyvfd" class="animable"></path></g><defs>     <filter id="active" height="200%">         <feMorphology in="SourceAlpha" result="DILATED" operator="dilate" radius="2"></feMorphology>                <feFlood flood-color="#32DFEC" flood-opacity="1" result="PINK"></feFlood>        <feComposite in="PINK" in2="DILATED" operator="in" result="OUTLINE"></feComposite>        <feMerge>            <feMergeNode in="OUTLINE"></feMergeNode>            <feMergeNode in="SourceGraphic"></feMergeNode>        </feMerge>    </filter>    <filter id="hover" height="200%">        <feMorphology in="SourceAlpha" result="DILATED" operator="dilate" radius="2"></feMorphology>                <feFlood flood-color="#ff0000" flood-opacity="0.5" result="PINK"></feFlood>        <feComposite in="PINK" in2="DILATED" operator="in" result="OUTLINE"></feComposite>        <feMerge>            <feMergeNode in="OUTLINE"></feMergeNode>            <feMergeNode in="SourceGraphic"></feMergeNode>        </feMerge>            <feColorMatrix type="matrix" values="0   0   0   0   0                0   1   0   0   0                0   0   0   0   0                0   0   0   1   0 "></feColorMatrix>    </filter></defs></svg>